<?xml version="1.0" encoding="UTF-8" standalone="no"?>
<!-- Uploaded to: SVG Repo, www.svgrepo.com, Generator: SVG Repo Mixer Tools -->

<svg
   height="646.25623"
   width="799.99994"
   version="1.1"
   id="_x36_"
   viewBox="0 0 511.99996 413.60398"
   xml:space="preserve"
   sodipodi:docname="pig-svgrepo-com.svg"
   inkscape:version="1.4 (86a8ad7, 2024-10-11)"
   xmlns:inkscape="http://www.inkscape.org/namespaces/inkscape"
   xmlns:sodipodi="http://sodipodi.sourceforge.net/DTD/sodipodi-0.dtd"
   xmlns="http://www.w3.org/2000/svg"
   xmlns:svg="http://www.w3.org/2000/svg"><defs
   id="defs13" /><sodipodi:namedview
   id="namedview13"
   pagecolor="#505050"
   bordercolor="#ffffff"
   borderopacity="1"
   inkscape:showpageshadow="0"
   inkscape:pageopacity="0"
   inkscape:pagecheckerboard="1"
   inkscape:deskcolor="#505050"
   inkscape:zoom="0.268125"
   inkscape:cx="-609.79021"
   inkscape:cy="-488.57809"
   inkscape:window-width="1463"
   inkscape:window-height="1041"
   inkscape:window-x="455"
   inkscape:window-y="0"
   inkscape:window-maximized="0"
   inkscape:current-layer="_x36_" />
<g
   id="g13"
   transform="translate(-3.8101005e-4)">
	<g
   id="g5">
		<g
   id="g2">
			<path
   style="fill:#85b000;fill-opacity:1"
   d="M 180.297,90.092 C 180.297,68.251 163.922,0 122.964,0 82.015,0 76.554,0 43.793,0 11.031,0 -10.81,46.41 5.571,73.711 c 14.462,24.101 20.475,27.299 28.668,38.219 8.187,10.924 31.395,30.032 55.97,30.032 24.568,0 90.089,0 90.089,0 v -51.87 z"
   id="path1" />
			<path
   style="fill:#006267;fill-opacity:1"
   d="M 90.208,105.106 C 81.037,105.106 67.656,95.069 63.72,89.821 60.233,85.166 57.117,81.646 54.372,78.543 49.707,73.277 45.304,68.302 37.178,54.749 c -0.371,-0.768 -0.826,-4.604 1.178,-9.709 1.938,-4.944 4.793,-7.562 5.91,-8.185 h 78.4 c 8.844,4.273 20.778,37.308 20.778,53.237 v 15.015 H 90.208 Z"
   id="path2" />
		</g>
		<g
   id="g4">
			<path
   style="fill:#85b000;fill-opacity:1"
   d="M 331.703,90.092 C 331.703,68.251 348.09,0 389.039,0 c 40.949,0 46.416,0 79.178,0 32.749,0 54.591,46.41 38.216,73.711 -14.467,24.101 -20.48,27.299 -28.668,38.219 -8.188,10.924 -31.402,30.032 -55.964,30.032 -24.574,0 -90.098,0 -90.098,0 z"
   id="path3"
   inkscape:label="path3" />
			<path
   style="fill:#006267;fill-opacity:1"
   d="m 421.801,105.106 c 9.16,0 22.546,-10.037 26.482,-15.285 3.486,-4.655 6.608,-8.175 9.342,-11.278 4.665,-5.266 9.074,-10.241 17.2,-23.794 0.364,-0.768 0.826,-4.604 -1.179,-9.709 -1.944,-4.944 -4.798,-7.562 -5.915,-8.185 H 389.33 c -8.831,4.273 -20.772,37.308 -20.772,53.237 v 15.015 h 53.243 z"
   id="path4" />
		</g>
	</g>
	<g
   id="g6">
		<path
   style="fill:#85b000;fill-opacity:1"
   d="M 256,413.604 C 144.428,413.604 44.394,360.592 44.394,245.707 44.394,164.273 99.422,67.5 165.635,33.351 192.821,19.32 223.518,21.832 256,21.832 Z"
   id="path5" />
		<path
   style="fill:#5a8100;fill-opacity:1"
   d="m 256,413.604 c 111.575,0 211.609,-53.012 211.609,-167.897 C 467.609,164.273 412.581,67.5 346.377,33.351 319.179,19.32 288.483,21.832 256,21.832 Z"
   id="path6" />
	</g>
	<g
   id="g8">
		<path
   style="fill:#e62b34;fill-opacity:1"
   d="m 177.26,205.18 c 0,8.901 -7.228,16.12 -16.128,16.12 -8.904,0 -16.12,-7.218 -16.12,-16.12 0,-2.651 0.637,-5.154 1.768,-7.358 0.747,-1.461 1.719,-2.794 2.86,-3.954 1.355,-1.373 2.946,-2.503 4.713,-3.322 2.059,-0.96 4.355,-1.491 6.779,-1.491 8.9,-0.001 16.128,7.218 16.128,16.125 z"
   id="path7" />
		<path
   style="fill:#e62b34;fill-opacity:1"
   d="m 366.991,205.18 c 0,8.901 -7.216,16.12 -16.12,16.12 -8.904,0 -16.12,-7.218 -16.12,-16.12 0,-2.651 0.632,-5.154 1.774,-7.358 0.741,-1.461 1.713,-2.794 2.855,-3.954 1.348,-1.373 2.952,-2.503 4.713,-3.322 2.052,-0.96 4.361,-1.491 6.778,-1.491 8.905,-0.001 16.12,7.218 16.12,16.125 z"
   id="path8" />
	</g>
	<path
   style="fill:#005356;fill-opacity:1"
   d="m 333.805,287.859 c 0,42.774 -34.827,48.617 -77.804,48.617 -42.966,0 -77.805,-9.262 -77.805,-48.617 0,-32.131 34.839,-63.313 77.805,-63.313 42.977,0.001 77.804,31.183 77.804,63.313 z"
   id="path9" />
	<path
   style="fill:#006267;fill-opacity:1"
   d="m 333.805,276.939 c 0,42.774 -34.827,48.621 -77.804,48.621 -42.966,0 -77.805,-9.266 -77.805,-48.621 0,-32.13 34.839,-63.31 77.805,-63.31 42.977,0 77.804,31.18 77.804,63.31 z"
   id="path10" />
	<g
   id="g12">
		<path
   style="fill:#005356;fill-opacity:1"
   d="m 236.637,281.879 c 0,8.905 -7.228,16.123 -16.12,16.123 -8.916,0 -16.132,-7.218 -16.132,-16.123 0,-2.651 0.644,-5.15 1.773,-7.355 0.753,-1.461 1.713,-2.794 2.855,-3.954 1.361,-1.376 2.952,-2.506 4.713,-3.326 2.065,-0.957 4.361,-1.488 6.79,-1.488 8.893,0.001 16.121,7.22 16.121,16.123 z"
   id="path11" />
		<path
   style="fill:#005356;fill-opacity:1"
   d="m 307.614,281.879 c 0,8.905 -7.215,16.123 -16.119,16.123 -8.904,0 -16.12,-7.218 -16.12,-16.123 0,-2.651 0.632,-5.15 1.762,-7.355 0.753,-1.461 1.725,-2.794 2.867,-3.954 1.348,-1.376 2.939,-2.506 4.713,-3.326 2.053,-0.957 4.361,-1.488 6.778,-1.488 8.904,0.001 16.119,7.22 16.119,16.123 z"
   id="path12" />
	</g>
</g>
</svg>
